<?xml version="1.0" encoding="UTF-8"?>
<svg xmlns="http://www.w3.org/2000/svg" viewBox="0 0 1000 1000" width="1000" height="1000">
  <title>Afternoon_Ride - optimized</title>
  <desc>GPX track converted to SVG - optimized version</desc>
  <style>
    .track-path {
      fill: none;
      stroke: #FF6B6B;
      stroke-width: 2;
      stroke-linecap: round;
      stroke-linejoin: round;
    }
    .track-path-optimized {
      fill: none;
      stroke: #4ECDC4;
      stroke-width: 2;
      stroke-linecap: round;
      stroke-linejoin: round;
    }
  </style>
  <path class="track-path-optimized" d="M 128.79,856.61 Q 118.25,859.11 109.23,837.12 T 121.88,806.28 T 149.41,782.27 T 170.21,767.90 T 190.32,766.69 T 215.44,739.50 T 239.68,705.87 T 246.08,687.74 T 245.47,634.09 T 245.80,585.23 T 259.40,573.25 T 276.30,553.10 T 285.70,536.92 T 322.83,526.18 T 370.20,521.58 T 397.27,530.36 T 420.99,530.26 T 444.38,523.09 T 463.05,518.63 T 477.67,502.27 T 497.52,478.31 T 516.01,462.59 T 532.42,454.75 T 560.46,450.31 T 579.95,449.90 T 590.52,451.71 T 618.05,449.43 T 654.63,445.42 T 690.72,437.17 T 728.45,430.30 T 757.75,427.11 T 773.76,414.66 T 786.66,403.55 T 795.77,401.98 T 816.80,410.31 T 846.55,417.22 T 864.77,404.34 T 863.70,363.62 T 849.50,314.58 T 844.08,291.74 T 855.58,289.03 T 868.61,285.08 T 879.69,280.62 T 893.28,270.00 T 899.11,257.87 T 892.63,251.82 T 882.21,238.53 T 856.05,210.49 T 824.67,167.32 T 814.95,131.79 T 806.35,124.46 T 795.84,130.16 T 794.62,152.37 T 790.99,177.65 T 791.01,177.45 T 794.78,151.69 T 804.56,125.99 T 814.72,131.36 T 824.74,166.87 T 839.27,197.80 T 850.28,206.94 T 865.42,217.49 T 880.74,236.61 T 893.49,253.99 T 893.47,269.65 T 880.24,280.47 T 869.30,284.93 T 856.16,288.90 T 844.08,292.14 T 848.94,314.21 T 863.27,362.77 T 865.13,404.06 T 867.19,414.69 T 874.80,414.89 T 870.41,423.67 T 860.37,442.32 T 853.25,455.55 T 835.45,495.81 T 814.98,541.88 T 745.06,592.78 T 672.85,643.29 T 662.42,656.92 T 660.91,699.72 T 637.92,735.37 T 540.23,751.67 T 425.01,784.70 T 295.77,840.16 T 202.80,878.67 T 188.75,869.58 T 169.95,842.66 T 153.73,822.38 T 144.96,809.17 T 136.70,795.00 T 133.53,793.65 T 133.93,797.33 T 116.25,807.56 T 108.86,836.97 T 123.20,857.58 T 128.67,856.49" />
</svg>